<?xml version="1.0" encoding="utf-8"?>
<!-- Generator: Adobe Illustrator 16.0.0, SVG Export Plug-In . SVG Version: 6.00 Build 0)  -->
<!DOCTYPE svg PUBLIC "-//W3C//DTD SVG 1.1//EN" "http://www.w3.org/Graphics/SVG/1.1/DTD/svg11.dtd">
<svg version="1.1" id="Ebene_1" xmlns="http://www.w3.org/2000/svg" xmlns:xlink="http://www.w3.org/1999/xlink" x="0px" y="0px"
	 width="600px" height="600px" viewBox="0 0 600 600" enable-background="new 0 0 600 600" xml:space="preserve">
<rect y="1" fill="#CBE8DF" width="600" height="600"/>
<g>
	<polygon fill-rule="evenodd" clip-rule="evenodd" fill="#FFFFFF" points="197.919,402.8 185.808,389.355 186.64,383.062 
		374.034,187.86 381.49,180.069 391.94,181.725 416.775,205.605 420.64,213.9 417.651,221.777 229.431,418.511 221.304,420.274 	"/>
	<g>
		<path fill-rule="evenodd" clip-rule="evenodd" fill="#DB2E2F" d="M421.27,206.164c-0.732-1.07-1.676-1.952-2.647-2.803
			c-5.711-4.998-11.418-10.006-17.128-15.01c-2.663-2.331-5.329-4.664-7.983-6.995c-2.358-2.057-5.077-3.278-8.203-3.46
			c-3.152-0.184-5.973,0.686-8.272,2.954c-0.511,0.5-0.994,1.015-1.478,1.531c-23.309,24.537-46.617,49.075-69.926,73.607
			c-38.687,40.726-77.373,81.448-116.057,122.177c-0.885,0.932-1.793,1.843-2.643,2.812c-1.512,1.685-2.3,3.677-2.388,5.958
			c-0.108,2.819,0.771,5.315,2.423,7.562c0.732,0.985,1.629,1.825,2.549,2.623c8.033,7.046,16.063,14.092,24.094,21.123
			c0.533,0.466,1.061,0.945,1.617,1.374c2.417,1.865,5.127,2.909,8.74,2.927c2.587,0.015,5.256-1.031,7.415-3.311
			c0.258-0.29,0.53-0.562,0.8-0.838c27.65-29.112,55.304-58.219,82.957-87.319c31.775-33.454,63.545-66.905,95.318-100.354
			c3.403-3.592,6.811-7.187,10.229-10.775c1.318-1.383,2.247-2.955,2.641-4.843C424.015,211.803,423.121,208.866,421.27,206.164z
			 M415.378,221.895c-1.576,1.691-3.184,3.363-4.772,5.045c-9.085,9.562-18.17,19.128-27.252,28.685
			c-10.151,10.68-20.312,21.35-30.46,32.032c-11.388,11.987-22.771,23.987-34.16,35.971c-9.439,9.932-18.89,19.852-28.33,29.796
			c-12.674,13.336-25.342,26.678-38.016,40.025c-6.61,6.931-13.219,13.875-19.823,20.827c-1.676,1.761-3.606,3.066-6.002,3.664
			c-4.331,1.091-8.151,0.147-11.482-2.788c-1.157-1.022-2.244-2.118-3.366-3.188c-5.733-5.452-11.458-10.907-17.203-16.354
			c-1.975-1.872-3.231-4.102-3.771-6.797c-0.63-3.142,0.077-5.986,1.626-8.689c0.513-0.899,1.192-1.673,1.904-2.423
			c6.653-6.993,13.298-13.986,19.945-20.979c8.197-8.634,16.397-17.266,24.589-25.887c7.099-7.474,14.191-14.927,21.275-22.389
			c10.236-10.779,20.473-21.556,30.709-32.326c8.865-9.331,17.739-18.652,26.602-27.978c8.909-9.372,17.815-18.751,26.716-28.129
			c8.292-8.719,16.579-17.437,24.873-26.162c2.213-2.329,4.424-4.663,6.647-6.992c0.524-0.558,1.063-1.115,1.608-1.667
			c2.186-2.2,4.878-3.341,7.913-3.562c2.569-0.183,4.992,0.449,7.178,1.835c0.926,0.586,1.764,1.294,2.549,2.048
			c6.299,5.987,12.592,11.963,18.888,17.952c0.56,0.528,1.125,1.063,1.652,1.624c2.221,2.36,3.284,5.177,3.319,8.498
			C418.665,216.715,417.578,219.531,415.378,221.895z"/>
		<path fill-rule="evenodd" clip-rule="evenodd" fill="#DB2E2F" d="M412.697,205.162c-6.334-6.034-12.677-12.061-19.02-18.085
			c-0.609-0.57-1.225-1.15-1.91-1.629c-2.376-1.662-4.989-2.257-7.869-1.682c-2.297,0.465-4.172,1.606-5.769,3.283
			c-4.503,4.77-9.032,9.521-13.544,14.276c-36.831,38.754-73.661,77.505-110.487,116.253
			c-19.278,20.291-38.555,40.572-57.827,60.858c-0.58,0.609-1.166,1.207-1.676,1.872c-3.094,4.022-2.824,9.564,0.645,13.263
			c0.351,0.371,0.729,0.724,1.104,1.081c6.431,6.114,12.864,12.231,19.298,18.346c0.373,0.357,0.75,0.709,1.143,1.046
			c4.078,3.389,9.858,3.202,13.711-0.466c0.786-0.756,1.529-1.567,2.285-2.358c26.324-27.697,52.641-55.407,78.967-83.101
			c33.674-35.447,67.359-70.884,101.046-106.328c0.526-0.561,1.062-1.11,1.558-1.699c1.597-1.894,2.423-4.075,2.42-6.853
			c0.059-2.271-0.794-4.503-2.443-6.437C413.831,206.216,413.254,205.691,412.697,205.162z M251.239,378.328
			c-0.521-0.316-1.072-0.633-1.605-0.973c-4.066-2.575-8.139-5.162-12.21-7.737c-0.54-0.344-1.114-0.621-1.67-0.938
			c-0.117,0.109-0.229,0.218-0.346,0.329c1.307,3.337,2.605,6.683,3.914,10.025c0.894,2.265,1.802,4.523,2.701,6.791
			c0.167,0.416,0.34,0.835,0.48,1.257c0.056,0.164,0.07,0.374,0.009,0.533c-0.096,0.214-0.34,0.152-0.516,0.1
			c-0.548-0.17-1.093-0.354-1.637-0.539c-5.224-1.764-10.448-3.533-15.671-5.294c-0.486-0.158-0.976-0.319-1.468-0.463
			c-0.27-0.073-0.501,0.015-0.691,0.222l0.012,0.009c0.334,0.104,0.493,0.402,0.686,0.651c3.337,4.4,6.636,8.833,9.803,13.367
			c0.146,0.212,0.287,0.426,0.433,0.63c0.229,0.338,0.109,0.598-0.182,0.821c-0.958,0.744-1.91,1.481-2.856,2.209
			c-1.28-1.299-10.834-14.657-17.44-24.352c-0.205-0.302-0.533-0.568-0.439-1.037c0.673-0.149,1.242,0.223,1.828,0.413
			c6.349,2.064,12.691,4.169,19.034,6.249c0.671,0.226,1.345,0.444,2.019,0.642c0.164,0.044,0.404,0.155,0.493-0.088
			c0.062-0.165,0.076-0.39,0.012-0.545c-0.668-1.667-1.377-3.313-2.045-4.98c-2.062-5.198-4.119-10.387-6.164-15.586
			c-0.182-0.454-0.466-0.899-0.305-1.603c8.836,5.394,17.566,10.767,26.285,16.127C253.126,376.031,252.365,377.18,251.239,378.328z
			 M272.298,354.457c-2.195,5.944-6.17,9.979-12.481,11.464c-1.131,0.267-2.291,0.281-3.727,0.313
			c-4.983,0.023-9.176-2.181-12.381-6.247c-3.038-3.843-3.826-8.308-2.54-12.94c1.755-6.348,5.872-10.675,12.308-12.359
			c10.772-2.827,20.147,6.515,19.553,15.806C272.945,351.847,272.767,353.191,272.298,354.457z M300.276,327.894
			c-0.507,0.056-1.019,0.064-1.535,0.064c-8.487-0.032-16.986-0.079-25.477-0.12c-0.627,0-1.248,0.029-1.813,0.053
			c-0.22,0.427,0.097,0.548,0.244,0.724c0.158,0.196,0.366,0.357,0.557,0.539c3.99,3.741,7.992,7.465,11.97,11.206
			c1.57,1.473,1.542,1.09,0.229,2.889c-0.416,0.56-0.85,1.113-1.192,1.567c-0.22,0.056-0.278,0.097-0.337,0.079
			c-0.059,0-0.128-0.032-0.176-0.079c-7.096-6.627-14.197-13.254-21.304-19.872c-0.325-0.305-0.709-0.542-1.073-0.814
			c0.085-0.167,0.17-0.328,0.252-0.496c0.888-0.006,1.772-0.021,2.654-0.021c8.303-0.023,16.6-0.026,24.902-0.052
			c0.493-0.006,1.233,0.258,1.433-0.164c0.29-0.627-0.513-0.911-0.894-1.283c-3.832-3.621-7.693-7.213-11.543-10.814
			c-0.328-0.307-0.665-0.606-0.984-0.931c-0.667-0.671-0.697-0.735-0.193-1.448c0.58-0.849,1.072-1.758,1.822-2.466
			c0.557,0.163,0.862,0.592,1.222,0.935c6.864,6.413,13.726,12.829,20.586,19.248c0.275,0.255,0.551,0.536,0.803,0.82
			C300.584,327.65,300.435,327.879,300.276,327.894z M319.281,304.418c-1.667,6.298-5.587,10.731-11.955,12.445
			c-6.476,1.734-12.077-0.1-16.53-5.15c-2.367-2.689-3.463-5.865-3.463-9.565c-0.214-7.799,6.416-15.586,14.388-16.625
			c4.049-0.526,7.799,0.289,11.139,2.714c1.948,1.417,3.589,3.127,4.811,5.21C319.677,296.886,320.289,300.612,319.281,304.418z
			 M331.271,294.297c-0.358,0.527-0.757,1.021-1.099,1.49c-0.549,0.05-0.766-0.306-1.032-0.558
			c-6.661-6.227-13.315-12.458-19.975-18.686c-0.287-0.271-0.574-0.524-0.823-0.807c-0.246-0.278-0.24-0.582,0.026-0.85
			c0.05-0.048,0.095-0.098,0.132-0.145c1.91-1.991,3.794-4.02,5.751-5.965c1.96-1.945,4.377-2.842,7.154-2.768
			c1.869,0.048,3.533,0.615,5.019,1.704c2.021,1.469,3.231,3.482,3.756,5.873c0.463,2.085,0.114,4.075-1.049,5.91
			c-0.967,1.528-2.133,2.894-3.316,4.244c-0.293,0.337-0.586,0.678-0.98,1.147c2.1,1.97,4.08,3.791,6.025,5.657
			C333.043,292.641,332.942,291.839,331.271,294.297z M359.866,262.446c-1.998,6.095-5.889,10.402-12.252,11.917
			c-6.993,1.669-13.148-1.004-17.071-6.535c-1.781-2.503-2.514-5.341-2.499-8.364c0.032-7.55,5.596-14.5,12.958-16.259
			c0.504-0.118,1.008-0.218,1.518-0.275c0.768-0.081,1.535-0.108,2.309-0.164c7.571-0.134,14.291,6.268,15.378,12.994
			C360.561,257.997,360.569,260.276,359.866,262.446z M382.038,241.25c-0.123,0.15-0.255,0.289-0.393,0.429
			c-3.456,3.622-6.92,7.243-10.383,10.866c-0.173,0.182-0.381,0.333-0.536,0.477c-0.592,0.059-0.832-0.381-1.146-0.671
			c-6.524-6.089-13.036-12.195-19.555-18.297c-1.302-1.214-1.234-1.112-0.256-2.481c0.513-0.723,1.017-1.459,1.702-2.431
			c6.469,6.049,12.744,11.921,18.984,17.751c0.776-0.214,1.113-0.796,1.553-1.25c2.317-2.404,4.617-4.826,6.923-7.238
			c0.357-0.372,0.709-0.752,1.087-1.089c0.223-0.207,0.508-0.161,0.642,0.106c0.519,1.034,1.006,2.08,1.506,3.124
			C382.294,240.808,382.202,241.043,382.038,241.25z M390.613,233.077c-4.197,2.396-2.936,2.849-4.655-1.26
			c-0.92-2.193-1.714-4.432-2.578-6.65c-0.686-1.784-0.686-1.796-2.493-2.168c-4.597-0.951-9.193-1.885-13.787-2.831
			c-1.433-0.296-2.862-0.611-4.427-0.946c0.513-1.406,1.125-2.593,1.734-3.787c0.126-0.234,0.384-0.352,0.656-0.305
			c0.439,0.071,0.891,0.147,1.33,0.246c4.134,0.922,8.274,1.845,12.419,2.771c0.495,0.114,1.002,0.213,1.503,0.305
			c0.267,0.05,0.51-0.201,0.431-0.45c-0.152-0.486-0.316-0.972-0.507-1.449c-1.435-3.51-2.88-7.012-4.315-10.521
			c-0.196-0.476-0.387-0.954-0.58-1.431c-0.138-0.352-0.053-0.661,0.27-0.831c1.119-0.587,2.229-1.216,3.349-1.679
			c0.475,0.376,0.571,0.823,0.729,1.242c3.636,9.341,7.271,18.68,10.901,28.026c0.12,0.297,0.223,0.601,0.331,0.899
			C391.05,232.623,390.918,232.902,390.613,233.077z"/>
		<path fill-rule="evenodd" clip-rule="evenodd" fill="#DB2E2F" d="M303.66,289.852c-6.369-0.028-11.792,5.197-11.895,11.51
			c-0.103,6.244,5.13,11.675,11.388,11.739c7.143,0.08,12.287-6.02,12.053-11.507C315.537,295.482,310.105,289.882,303.66,289.852z"
			/>
		<path fill-rule="evenodd" clip-rule="evenodd" fill="#DB2E2F" d="M344.205,247.236c-6.751,0.021-11.767,6.088-11.731,11.688
			c0.021,6.095,5.499,11.762,11.59,11.519c5.963,0.201,11.968-5.001,11.927-11.649C355.953,252.425,350.635,247.222,344.205,247.236
			z"/>
		<path fill-rule="evenodd" clip-rule="evenodd" fill="#DB2E2F" d="M256.899,338.695c-6.31-0.176-11.786,5.572-11.801,11.575
			c-0.012,6.492,5.771,11.654,11.496,11.657c6.158,0.009,11.988-5.247,12-11.622C268.609,343.4,262.445,338.458,256.899,338.695z"/>
		<path fill-rule="evenodd" clip-rule="evenodd" fill="#DB2E2F" d="M324.704,272.31c-1.327-1.651-3.021-2.336-5.121-1.917
			c-0.838,0.162-1.588,0.513-2.268,1.016c-1.232,0.929-2.256,2.062-3.214,3.255c1.151,1.35,6.592,6.412,7.869,7.314
			c0.858-0.917,1.775-1.816,2.599-2.787c0.413-0.48,0.727-1.062,0.973-1.652C326.321,275.641,325.97,273.888,324.704,272.31z"/>
	</g>
</g>
<rect x="106" y="73" fill="#FF0000" width="42" height="27"/>
<rect x="193" y="73" fill="#FF0000" width="39" height="27"/>
<rect x="235" y="73" fill="#FF0000" width="45" height="27"/>
<rect x="369" y="73" fill="#FFFF00" width="42" height="27"/>
<rect x="324" y="73" fill="#FFFF00" width="42" height="27"/>
<rect x="456" y="73" fill="#FFFF00" width="42" height="27"/>
<rect x="501" y="148" fill="#009245" width="24" height="39"/>
<rect x="501" y="103" fill="#009245" width="24" height="42"/>
<rect x="501" y="232" fill="#009245" width="24" height="45"/>
<rect x="501" y="366" fill="#0000FF" width="24" height="42"/>
<rect x="501" y="453" fill="#0000FF" width="24" height="42"/>
<rect x="369" y="498" fill="#C1272D" width="42" height="24"/>
<rect x="456" y="498" fill="#C1272D" width="42" height="24"/>
<rect x="106" y="498" fill="#29ABE2" width="42" height="24"/>
<rect x="193" y="498" fill="#29ABE2" width="39" height="24"/>
<rect x="235" y="498" fill="#29ABE2" width="45" height="24"/>
<rect x="76" y="453" fill="#EF569F" width="27" height="42"/>
<rect x="76" y="366" fill="#EF569F" width="27" height="42"/>
<rect x="76" y="321" fill="#EF569F" width="27" height="42"/>
<rect x="76" y="232" fill="#F7931E" width="27" height="45"/>
<rect x="76" y="148" fill="#F7931E" width="27" height="39"/>
<rect x="76" y="103" fill="#F7931E" width="27" height="42"/>
<path d="M502.994,16h-3.001h-42h-3h-39h-3h-42h-3h-41.999h-3.001h-39h-3h-45h-3h-39h-3h-39h-3h-42h-3H19v84.508v3v42v3v39v3v39v3v45
	v3v38.999v3.001v42v2.999v42.001v3v39v3v41.999v3.001V582h84.993h3h42h3h39h3h39h3h45h3h39h3.001h41.999h3h42h3h39h3h42h3.001H585
	v-82.491v-3.001v-41.999v-3v-39v-3v-42.001v-2.999v-42v-3.001v-38.999v-3v-45v-3v-39v-3v-39v-3v-42v-3V16H502.994z M456,19h42v81
	h-42V19z M414,19h39v81h-39V19z M369,19h42v81h-42V19z M324,19h42v81h-42V19z M283,19h38v81h-38V19z M235,19h45v81h-45V19z M193,19
	h39v81h-39V19z M151,19h39v81h-39V19z M106,19h42v81h-42V19z M22,19h81v81H22V19z M103,103v42H22v-42H103z M103,190v39H22v-39H103z
	 M22,187v-39h81v39H22z M103,232v45H22v-45H103z M103,280v38H22v-38H103z M103,321v42H22v-42H103z M103,366v42H22v-42H103z M103,411
	v39H22v-39H103z M22,453h81v42H22V453z M103,579H22v-81h81V579z M148,579h-42v-81h42V579z M190,579h-39v-81h39V579z M232,579h-39
	v-81h39V579z M280,579h-45v-81h45V579z M321,579h-38v-81h38V579z M366,579h-42v-81h42V579z M411,579h-42v-81h42V579z M453,579h-39
	v-81h39V579z M498,579h-42v-81h42V579z M457.993,495h-3h-39h-3h-42h-3h-41.999h-3.001h-39h-3h-45h-3h-39h-3h-39h-3H106v-40.491v-3
	v-39v-3v-42.001v-2.999v-42v-3.001v-38.999v-3v-45v-3v-39v-3v-39v-3V103h42.993h3h39h3h39h3h45h3h39h3.001h41.999h3h42h3h39h3H498
	v42.509v3v39v3v39v3v45v3v38.999v3.001v42v2.999v42.001v3v39v3V495H457.993z M582,579h-81v-81h81V579z M582,495h-81v-42h81V495z
	 M582,450h-81v-39h81V450z M582,408h-81v-42h81V408z M582,363h-81v-42h81V363z M582,318h-81v-38h81V318z M582,277h-81v-45h81V277z
	 M582,229h-81v-39h81V229z M582,187h-81v-39h81V187z M582,145h-81v-42h81V145z M582,100h-81V19h81V100z"/>
</svg>
