<?xml version="1.0" encoding="utf-8"?>
<!-- Generator: Adobe Illustrator 16.0.0, SVG Export Plug-In . SVG Version: 6.00 Build 0)  -->
<!DOCTYPE svg PUBLIC "-//W3C//DTD SVG 1.1//EN" "http://www.w3.org/Graphics/SVG/1.1/DTD/svg11.dtd">
<svg version="1.1" id="Ebene_1" xmlns="http://www.w3.org/2000/svg" xmlns:xlink="http://www.w3.org/1999/xlink" x="0px" y="0px"
	 width="600px" height="600px" viewBox="0 0 600 600" enable-background="new 0 0 600 600" xml:space="preserve">
<rect x="-177" y="-65" fill="#B7DCD1" width="951" height="665"/>
<g>
	<polygon fill="#CBE8DF" points="389.018,683.547 -491.125,529.945 172.335,247.516 1052.474,401.112 	"/>
	<g>
		<polygon fill="none" stroke="#000000" stroke-miterlimit="10" points="382.083,669.604 -441.767,525.826 179.265,261.461 
			1003.115,405.232 		"/>
		<polygon fill="none" stroke="#000000" stroke-miterlimit="10" points="208.242,319.759 90.545,299.223 179.265,261.461 
			296.959,281.998 		"/>
		<polygon fill="none" stroke="#000000" stroke-miterlimit="10" points="-324.073,546.368 -441.767,525.826 -353.048,488.065 
			-235.354,508.598 		"/>
		<polygon fill="none" stroke="#000000" stroke-miterlimit="10" points="158.097,341.112 40.399,320.57 90.545,299.223 
			208.242,319.759 		"/>
		<polygon fill="none" stroke="#000000" stroke-miterlimit="10" points="107.95,362.456 -9.744,341.918 40.399,320.57 
			158.097,341.112 		"/>
		<polygon fill="none" stroke="#000000" stroke-miterlimit="10" points="61.665,382.164 -56.032,361.625 -9.744,341.918 
			107.95,362.456 		"/>
		<polygon fill="none" stroke="#000000" stroke-miterlimit="10" points="11.519,403.511 -106.178,382.972 -56.032,361.625 
			61.665,382.164 		"/>
		<polygon fill="none" stroke="#000000" stroke-miterlimit="10" points="-38.63,424.855 -156.327,404.318 -106.178,382.972 
			11.519,403.511 		"/>
		<polygon fill="none" stroke="#000000" stroke-miterlimit="10" points="-88.773,446.205 -206.47,425.663 -156.327,404.318 
			-38.63,424.855 		"/>
		<polygon fill="none" stroke="#000000" stroke-miterlimit="10" points="-135.065,465.906 -252.759,445.367 -206.47,425.663 
			-88.773,446.205 		"/>
		<polygon fill="none" stroke="#000000" stroke-miterlimit="10" points="-185.21,487.253 -302.904,466.715 -252.759,445.367 
			-135.065,465.906 		"/>
		<polygon fill="none" stroke="#000000" stroke-miterlimit="10" points="-235.354,508.598 -353.048,488.065 -302.904,466.715 
			-185.21,487.253 		"/>
		<g>
			<polygon fill="none" stroke="#000000" stroke-miterlimit="10" points="-168.831,520.212 -257.55,557.977 -324.073,546.368 
				-235.354,508.598 			"/>
			<polygon fill="none" stroke="#000000" stroke-miterlimit="10" points="-102.312,531.816 -191.028,569.585 -257.55,557.977 
				-168.831,520.212 			"/>
			<polygon fill="none" stroke="#000000" stroke-miterlimit="10" points="-40.906,542.537 -129.625,580.305 -191.028,569.585 
				-102.312,531.816 			"/>
			<polygon fill="none" stroke="#000000" stroke-miterlimit="10" points="25.617,554.145 -63.103,591.913 -129.625,580.305 
				-40.906,542.537 			"/>
			<polygon fill="none" stroke="#000000" stroke-miterlimit="10" points="92.139,565.75 3.417,603.521 -63.103,591.913 
				25.617,554.145 			"/>
			<polygon fill="none" stroke="#000000" stroke-miterlimit="10" points="158.659,577.364 69.942,615.129 3.417,603.521 
				92.139,565.75 			"/>
			<polygon fill="none" stroke="#000000" stroke-miterlimit="10" points="220.067,588.072 131.345,625.847 69.942,615.129 
				158.659,577.364 			"/>
			<polygon fill="none" stroke="#000000" stroke-miterlimit="10" points="286.586,599.684 197.867,637.454 131.345,625.847 
				220.067,588.072 			"/>
			<polygon fill="none" stroke="#000000" stroke-miterlimit="10" points="353.109,611.297 264.387,649.062 197.867,637.454 
				286.586,599.684 			"/>
		</g>
		<polygon fill="none" stroke="#000000" stroke-miterlimit="10" points="382.083,669.604 264.387,649.062 353.109,611.297 
			470.801,631.836 		"/>
		<g>
			<polygon fill="none" stroke="#000000" stroke-miterlimit="10" points="403.252,589.947 520.951,610.489 470.801,631.836 
				353.109,611.297 			"/>
			<polygon fill="none" stroke="#000000" stroke-miterlimit="10" points="453.398,568.604 571.095,589.143 520.951,610.489 
				403.252,589.947 			"/>
			<polygon fill="none" stroke="#000000" stroke-miterlimit="10" points="499.69,548.899 617.381,569.435 571.095,589.143 
				453.398,568.604 			"/>
			<polygon fill="none" stroke="#000000" stroke-miterlimit="10" points="549.83,527.549 667.523,548.088 617.381,569.435 
				499.69,548.899 			"/>
			<polygon fill="none" stroke="#000000" stroke-miterlimit="10" points="599.982,506.204 717.676,526.74 667.523,548.088 
				549.83,527.549 			"/>
			<polygon fill="none" stroke="#000000" stroke-miterlimit="10" points="650.125,484.854 767.822,505.396 717.676,526.74 
				599.982,506.204 			"/>
			<polygon fill="none" stroke="#000000" stroke-miterlimit="10" points="696.413,465.153 814.107,485.691 767.822,505.396 
				650.125,484.854 			"/>
			<polygon fill="none" stroke="#000000" stroke-miterlimit="10" points="746.559,443.807 864.257,464.346 814.107,485.691 
				696.413,465.153 			"/>
			<polygon fill="none" stroke="#000000" stroke-miterlimit="10" points="796.702,422.461 914.396,442.995 864.257,464.346 
				746.559,443.807 			"/>
		</g>
		<polygon fill="none" stroke="#000000" stroke-miterlimit="10" points="914.396,442.995 796.702,422.461 885.422,384.691 
			1003.115,405.232 		"/>
		<g>
			<polygon fill="none" stroke="#000000" stroke-miterlimit="10" points="730.18,410.848 818.902,373.084 885.422,384.691 
				796.702,422.461 			"/>
			<polygon fill="none" stroke="#000000" stroke-miterlimit="10" points="663.66,399.239 752.38,361.476 818.902,373.084 
				730.18,410.848 			"/>
			<polygon fill="none" stroke="#000000" stroke-miterlimit="10" points="602.254,388.522 690.972,350.755 752.38,361.476 
				663.66,399.239 			"/>
			<polygon fill="none" stroke="#000000" stroke-miterlimit="10" points="535.732,376.914 624.448,339.153 690.972,350.755 
				602.254,388.522 			"/>
			<polygon fill="none" stroke="#000000" stroke-miterlimit="10" points="469.213,365.309 557.932,327.538 624.448,339.153 
				535.732,376.914 			"/>
			<polygon fill="none" stroke="#000000" stroke-miterlimit="10" points="402.693,353.692 491.409,315.932 557.932,327.538 
				469.213,365.309 			"/>
			<polygon fill="none" stroke="#000000" stroke-miterlimit="10" points="341.285,342.986 430.001,305.217 491.409,315.932 
				402.693,353.692 			"/>
			<polygon fill="none" stroke="#000000" stroke-miterlimit="10" points="274.762,331.373 363.481,293.608 430.001,305.217 
				341.285,342.986 			"/>
			<polygon fill="none" stroke="#000000" stroke-miterlimit="10" points="208.242,319.759 296.959,281.998 363.481,293.608 
				274.762,331.373 			"/>
		</g>
	</g>
	<g>
		<polygon fill-rule="evenodd" clip-rule="evenodd" fill="#FFFFFF" points="12.939,488.1 10.031,478.656 18.227,475.903 
			509.675,431.926 529.26,430.166 542.771,433.628 552.806,451.249 549.306,456.149 536.197,459.099 41.829,503.585 27.942,502.329 
					"/>
		<g>
			<path fill-rule="evenodd" clip-rule="evenodd" fill="#DB2E2F" d="M558.795,452.667c0.109-0.694-0.301-1.351-0.789-2.004
				c-2.851-3.819-5.689-7.64-8.539-11.468c-1.329-1.777-2.656-3.564-3.98-5.336c-1.181-1.579-3.832-2.853-8.214-3.741
				c-4.435-0.899-9.54-1.204-15.438-0.729c-1.286,0.104-2.565,0.223-3.853,0.343c-61.414,5.594-122.828,11.186-184.233,16.771
				c-101.933,9.285-203.859,18.562-305.786,27.841c-2.337,0.217-4.677,0.413-7.006,0.65c-4.071,0.41-7.439,1.146-10.093,2.197
				c-3.284,1.297-4.754,2.7-4.816,4.186c-0.018,0.652,0.369,1.276,0.832,1.892c4.001,5.375,7.997,10.756,12.006,16.133
				c0.261,0.355,0.516,0.715,0.858,1.061c1.482,1.5,4.306,2.687,9.593,3.618c3.782,0.674,8.869,0.866,14.561,0.343
				c0.697-0.062,1.4-0.129,2.1-0.19c72.861-6.632,145.713-13.267,218.565-19.895c83.723-7.627,167.436-15.252,251.146-22.868
				c8.986-0.819,17.97-1.646,26.971-2.46c3.465-0.308,6.568-0.812,9.235-1.61C556.578,456.029,558.525,454.412,558.795,452.667z
				 M532.725,458.569c-4.187,0.396-8.41,0.767-12.604,1.156c-23.931,2.173-47.873,4.361-71.798,6.532
				c-26.742,2.437-53.477,4.856-80.21,7.294c-30.015,2.727-60.021,5.468-90.02,8.198c-24.865,2.258-49.739,4.516-74.606,6.786
				c-33.395,3.04-66.775,6.077-100.178,9.118c-17.387,1.57-34.786,3.155-52.176,4.734c-4.417,0.403-8.699,0.523-12.879,0.189
				c-7.572-0.598-12.135-2.018-13.787-4.253c-0.562-0.784-0.946-1.579-1.412-2.367c-2.382-4.039-4.754-8.078-7.165-12.123
				c-0.826-1.385-0.199-2.756,1.986-4.169c2.56-1.643,6.74-2.805,12.015-3.682c1.751-0.289,3.608-0.479,5.477-0.649
				c17.516-1.591,35.026-3.184,52.536-4.78c21.605-1.966,43.204-3.935,64.795-5.899c18.69-1.702,37.372-3.397,56.045-5.102
				c26.968-2.455,53.939-4.907,80.907-7.362c23.354-2.123,46.717-4.246,70.059-6.37c23.467-2.133,46.941-4.276,70.4-6.409
				c21.834-1.986,43.663-3.972,65.507-5.96c5.828-0.527,11.663-1.061,17.506-1.594c1.395-0.126,2.798-0.246,4.21-0.363
				c5.641-0.486,10.866-0.331,15.571,0.343c3.979,0.571,6.835,1.493,8.515,2.704c0.705,0.515,1.15,1.062,1.47,1.622
				c2.627,4.435,5.258,8.863,7.874,13.308c0.231,0.386,0.466,0.784,0.63,1.188c0.645,1.678-0.909,3.278-4.538,4.848
				C543.289,456.966,538.57,458.021,532.725,458.569z"/>
			<path fill-rule="evenodd" clip-rule="evenodd" fill="#DB2E2F" d="M547.308,449.995c-2.621-4.47-5.269-8.937-7.914-13.403
				c-0.255-0.422-0.515-0.861-0.99-1.254c-1.654-1.395-4.835-2.349-9.707-2.814c-3.886-0.369-7.902-0.308-12.111,0.07
				c-11.889,1.093-23.805,2.173-35.709,3.257c-97.011,8.825-194.031,17.647-291.034,26.481
				c-50.791,4.625-101.575,9.238-152.348,13.858c-1.52,0.144-3.049,0.272-4.528,0.454c-9.01,1.104-14.746,3.79-13.744,6.42
				c0.108,0.261,0.27,0.524,0.427,0.791c2.666,4.535,5.352,9.06,8.035,13.598c0.149,0.267,0.313,0.523,0.519,0.784
				c2.237,2.643,10.942,4.036,20.658,3.295c1.995-0.158,3.981-0.345,5.97-0.526c69.335-6.31,138.684-12.628,208.027-18.925
				c88.723-8.079,177.445-16.151,266.181-24.229c1.395-0.123,2.797-0.244,4.177-0.396c4.438-0.48,8.061-1.301,11.128-2.61
				c2.613-1.055,3.825-2.329,3.55-3.661C547.812,450.783,547.542,450.386,547.308,449.995z M118.366,490.231
				c-0.416-0.28-0.878-0.571-1.283-0.866c-3.123-2.259-6.239-4.522-9.367-6.781c-0.416-0.299-0.949-0.579-1.423-0.869
				c-0.287,0.025-0.568,0.041-0.867,0.063c-1.769,1.913-3.573,3.82-5.354,5.733c-1.186,1.291-2.358,2.592-3.547,3.893
				c-0.22,0.242-0.419,0.479-0.683,0.718c-0.099,0.091-0.316,0.192-0.58,0.252c-0.38,0.076-0.673-0.015-0.873-0.085
				c-0.612-0.217-1.207-0.448-1.81-0.678c-5.709-2.164-11.427-4.344-17.153-6.511c-0.545-0.199,0.163-0.352-0.409-0.545
				c-0.311-0.103-0.017-0.088-0.017-0.027v0.01c0,0.126-0.959,0.267-0.944,0.434c0.026,2.933-0.659,5.841-1.031,8.787
				c-0.016,0.141-0.361,0.267-0.364,0.401c-0.047,0.219-0.658,0.299-1.326,0.334c-2.235,0.105-4.535,0.202-6.732,0.305
				c-0.439-0.938,0.283-9.687,1.32-15.952c0.029-0.193-0.181-0.407,0.475-0.604c1.157,0.101,1.572,0.425,2.222,0.665
				c7.036,2.601,14.011,5.22,21.035,7.823c0.738,0.284,1.482,0.557,2.255,0.823c0.196,0.065,0.41,0.174,0.817,0.083
				c0.27-0.062,0.539-0.161,0.624-0.252c0.858-0.961,1.641-1.919,2.51-2.88c2.718-2.973,5.448-5.943,8.195-8.925
				c0.238-0.259,0.313-0.539,1.33-0.832c7.016,4.807,13.887,9.581,20.758,14.344C123.676,489.635,121.287,489.98,118.366,490.231z
				 M175.735,484.38c-9.81,2.241-20.114,3.119-31.022,2.203c-1.959-0.161-3.682-0.461-5.832-0.806
				c-7.346-1.269-11.063-3.38-11.274-6.122c-0.197-2.589,3.588-4.897,10.612-6.751c9.602-2.54,20.442-3.53,31.763-2.669
				c18.948,1.43,22.378,8.236,11.219,12.46C179.572,483.312,177.821,483.905,175.735,484.38z M246.262,479.031
				c-0.814-0.108-1.582-0.234-2.337-0.365c-12.437-2.195-24.868-4.392-37.29-6.585c-0.917-0.164-1.866-0.314-2.715-0.442
				c-0.814,0.146-0.475,0.281-0.454,0.4c0.015,0.136,0.138,0.262,0.229,0.399c1.708,2.785,3.471,5.57,5.17,8.351
				c0.68,1.098,1.06,0.911-2.865,1.417c-1.23,0.161-2.472,0.308-3.486,0.437c-0.384-0.026-0.519-0.028-0.585-0.049
				c-0.088-0.015-0.146-0.048-0.164-0.083c-3.087-4.94-6.178-9.891-9.297-14.833c-0.14-0.222-0.436-0.436-0.676-0.655
				c0.313-0.056,0.624-0.111,0.928-0.167c1.304,0.226,2.619,0.444,3.922,0.668c12.217,2.117,24.414,4.241,36.634,6.358
				c0.732,0.126,1.526,0.439,2.288,0.297c1.116-0.227,0.258-0.563,0.111-0.836c-1.623-2.691-3.318-5.374-4.982-8.058
				c-0.141-0.229-0.305-0.456-0.422-0.69c-0.229-0.49-0.199-0.525,1.321-0.732c1.795-0.252,3.529-0.557,5.404-0.7
				c0.639,0.225,0.615,0.501,0.768,0.755c2.981,4.787,5.955,9.569,8.925,14.354c0.123,0.192,0.217,0.393,0.27,0.594
				C246.977,478.993,246.502,479.066,246.262,479.031z M300.166,472.837c-9.426,2.539-20.094,3.623-31.341,2.8
				c-11.438-0.844-17.63-3.14-18.58-6.667c-0.498-1.874,1.403-3.652,5.504-5.397c8.328-3.729,26.685-5.7,39.543-4.151
				c6.532,0.794,11.139,2.142,13.359,4.142c1.297,1.166,1.802,2.393,1.292,3.685C309.091,469.389,305.863,471.299,300.166,472.837z
				 M328.985,471.14c-1.104,0.153-2.244,0.282-3.26,0.417c-0.861-0.112-0.782-0.344-0.899-0.527
				c-2.895-4.644-5.768-9.289-8.65-13.928c-0.119-0.205-0.26-0.396-0.315-0.598c-0.053-0.185,0.29-0.331,0.975-0.39
				c0.12-0.01,0.244-0.021,0.354-0.035c5.015-0.445,10.027-0.922,15.059-1.333c5.033-0.419,9.575-0.223,13.574,0.53
				c2.688,0.498,4.508,1.195,5.489,2.089c1.338,1.212,0.881,2.469-0.987,3.731c-1.636,1.102-4.354,1.944-8.085,2.517
				c-3.114,0.471-6.341,0.813-9.578,1.156c-0.806,0.073-1.611,0.161-2.707,0.281c0.899,1.468,1.793,2.833,2.588,4.212
				C333.429,470.81,334.164,470.405,328.985,471.14z M406.267,463.452c-9.685,2.369-20.173,3.395-31.201,2.478
				c-12.114-1.005-18.201-3.84-17.835-7.455c0.158-1.637,2.22-3.163,5.589-4.584c8.403-3.553,24.276-5.403,37.041-4.341
				c0.873,0.07,1.723,0.156,2.537,0.255c1.215,0.161,2.375,0.343,3.569,0.513c11.272,1.884,14.058,6.623,8.203,10.07
				C412.213,461.536,409.708,462.611,406.267,463.452z M462.312,459.144c-0.35,0.04-0.697,0.072-1.055,0.105
				c-9.09,0.819-18.181,1.64-27.282,2.46c-0.457,0.041-0.935,0.059-1.318,0.084c-0.934-0.122-0.8-0.392-0.937-0.609
				c-2.845-4.542-5.65-9.088-8.469-13.638c-0.565-0.907-0.583-0.844,2.376-1.235c1.55-0.211,3.111-0.425,5.193-0.712
				c2.8,4.511,5.521,8.89,8.228,13.24c1.38,0.096,2.52-0.088,3.661-0.191c6.069-0.539,12.13-1.093,18.195-1.64
				c0.926-0.082,1.866-0.173,2.795-0.231c0.557-0.041,0.925,0.05,0.823,0.217c-0.39,0.617-0.826,1.236-1.246,1.854
				C463.176,459.002,462.78,459.093,462.312,459.144z M483.955,457.491c-8.817,0.053-7.464,0.592-5.434-1.784
				c1.068-1.268,2.378-2.536,3.57-3.803c0.964-1.013,0.981-1.021-1.257-1.657c-5.703-1.629-11.421-3.245-17.12-4.868
				c-1.781-0.513-3.532-1.019-5.461-1.585c2.312-0.526,4.526-0.928,6.746-1.335c0.442-0.085,0.946-0.073,1.299,0.025
				c0.576,0.141,1.15,0.294,1.68,0.452c5.045,1.496,10.109,2.99,15.171,4.49c0.603,0.182,1.241,0.36,1.877,0.532
				c0.337,0.088,0.971,0.032,1.131-0.104c0.311-0.267,0.609-0.539,0.858-0.812c1.781-2.022,3.538-4.044,5.316-6.062
				c0.23-0.276,0.486-0.554,0.729-0.83c0.191-0.196,0.66-0.322,1.319-0.322c2.29,0.015,4.616,0,6.774,0.067
				c0.275,0.305-0.076,0.536-0.299,0.773c-5.008,5.337-10.009,10.674-15.026,16.008c-0.146,0.17-0.343,0.34-0.512,0.507
				C485.101,457.386,484.596,457.482,483.955,457.491z"/>
			<path fill-rule="evenodd" clip-rule="evenodd" fill="#DB2E2F" d="M293.354,461.964c-9.324-1.649-23.079-0.574-30.22,2.378
				c-7.065,2.918-5.398,6.818,3.723,8.45c10.404,1.872,24.718,0.314,30.448-2.334C304.565,467.667,302.787,463.631,293.354,461.964z
				"/>
			<path fill-rule="evenodd" clip-rule="evenodd" fill="#DB2E2F" d="M400.098,452.269c-9.941-1.72-24.013-0.15-30.167,2.504
				c-6.719,2.876-4.953,6.954,4.266,8.4c8.535,1.626,23.118,0.707,30.415-2.437C411.617,457.726,409.567,453.908,400.098,452.269z"
				/>
			<path fill-rule="evenodd" clip-rule="evenodd" fill="#DB2E2F" d="M170.568,473.003c-9.08-1.702-23.483-0.397-30.152,2.428
				c-7.2,3.059-4.429,6.978,3.975,8.445c9.042,1.584,23.424,0.598,30.501-2.407C182.56,478.22,178.98,474.312,170.568,473.003z"/>
			<path fill-rule="evenodd" clip-rule="evenodd" fill="#DB2E2F" d="M343.683,459.088c-0.11-1.117-1.844-1.873-5.392-2.215
				c-1.405-0.142-2.905-0.164-4.455-0.104c-2.848,0.121-5.604,0.391-8.331,0.715c0.196,0.927,2.588,4.708,3.457,5.464
				c2.278-0.214,4.618-0.405,6.919-0.65c1.124-0.12,2.234-0.316,3.241-0.527C342.377,461.075,343.795,460.156,343.683,459.088z"/>
		</g>
	</g>
	<polygon fill="#FF0000" points="301.133,318.616 239.73,307.896 212.724,319.39 274.129,330.102 	"/>
	<polygon fill="#FF0000" points="429.058,340.937 372.769,331.112 345.77,342.608 402.054,352.434 	"/>
	<polygon fill="#FF0000" points="495.583,352.542 434.174,341.83 407.175,353.323 468.577,364.039 	"/>
	<polygon fill="#FFFF00" points="606.74,388.154 663.034,397.972 690.033,386.478 633.742,376.654 	"/>
	<polygon fill="#FFFF00" points="540.22,376.539 601.622,387.258 628.625,375.766 567.217,365.049 	"/>
	<polygon fill="#FFFF00" points="823.076,409.696 761.671,398.982 734.667,410.473 796.075,421.191 	"/>
	<polygon fill="#009245" points="747.189,445.075 700.9,464.776 736.718,471.026 783.009,451.322 	"/>
	<polygon fill="#009245" points="797.335,423.728 751.043,443.429 786.864,449.679 833.151,429.978 	"/>
	<polygon fill="#009245" points="640.286,512.083 686.575,492.374 650.758,486.122 604.47,505.833 	"/>
	<polygon fill="#0000FF" points="500.317,550.161 457.883,568.226 493.705,574.479 536.137,556.415 	"/>
	<polygon fill="#0000FF" points="393.414,617.174 439.705,597.466 403.889,591.216 357.6,610.922 	"/>
	<polygon fill="#C1272D" points="132.285,590.123 188.577,599.941 215.58,588.45 159.292,578.63 	"/>
	<polygon fill="#C1272D" points="348.622,611.67 287.22,600.952 260.216,612.442 321.619,623.164 	"/>
	<polygon fill="#29ABE2" points="-173.319,520.589 -234.727,509.869 -261.728,521.365 -200.325,532.077 	"/>
	<polygon fill="#29ABE2" points="-45.394,542.909 -101.682,533.082 -128.685,544.578 -72.394,554.406 	"/>
	<polygon fill="#29ABE2" points="21.126,554.518 -40.279,543.8 -67.28,555.293 -5.874,566.011 	"/>
	<polygon fill="#EF569F" points="-225.515,481.381 -271.804,501.082 -235.983,507.332 -189.698,487.628 	"/>
	<polygon fill="#EF569F" points="-129.081,440.323 -171.514,458.388 -135.697,464.641 -93.267,446.576 	"/>
	<polygon fill="#EF569F" points="-78.938,418.979 -125.226,438.687 -89.406,444.937 -43.121,425.228 	"/>
	<polygon fill="#F7931E" points="21.355,376.284 -24.931,395.988 10.886,402.245 57.172,382.532 	"/>
	<polygon fill="#F7931E" points="117.789,335.233 71.501,354.941 107.317,361.188 153.609,341.487 	"/>
	<polygon fill="#F7931E" points="167.932,313.887 121.646,333.591 157.463,339.844 203.752,320.137 	"/>
</g>
<g>
	<polygon fill="#E6E6E6" points="226.634,189.768 157.305,174.121 109.637,235.103 126.114,239.014 128.472,288.538 
		197.762,303.456 195.058,246.746 182.792,244.102 	"/>
	<polygon fill="#F2F2F2" points="280.983,230.072 226.634,189.768 177.124,251.125 195.093,247.485 197.762,303.456 
		265.682,289.677 263.017,233.716 	"/>
</g>
<linearGradient id="SVGID_1_" gradientUnits="userSpaceOnUse" x1="535.9141" y1="275.7114" x2="535.9141" y2="358.9604">
	<stop  offset="0.1789" style="stop-color:#6A0E00"/>
	<stop  offset="0.2174" style="stop-color:#741100"/>
	<stop  offset="0.3678" style="stop-color:#971900"/>
	<stop  offset="0.5208" style="stop-color:#B12000"/>
	<stop  offset="0.6758" style="stop-color:#C52500"/>
	<stop  offset="0.834" style="stop-color:#D02800"/>
	<stop  offset="1" style="stop-color:#D42900"/>
</linearGradient>
<path fill="url(#SVGID_1_)" d="M505.642,347.611c0,6.272,13.554,11.349,30.271,11.349c16.72,0,30.272-5.076,30.272-11.349
	l-30.272-71.9L505.642,347.611z"/>
<linearGradient id="SVGID_2_" gradientUnits="userSpaceOnUse" x1="535.9141" y1="298.4062" x2="535.9141" y2="253.0225">
	<stop  offset="0" style="stop-color:#C1272D"/>
	<stop  offset="1" style="stop-color:#ED1C24"/>
</linearGradient>
<path fill="url(#SVGID_2_)" d="M558.603,275.711c0,12.532-10.158,22.695-22.689,22.695c-12.53,0-22.688-10.163-22.688-22.695
	c0-12.529,10.157-22.689,22.688-22.689C548.444,253.022,558.603,263.183,558.603,275.711z"/>
<linearGradient id="SVGID_3_" gradientUnits="userSpaceOnUse" x1="69.9424" y1="263.3301" x2="69.9424" y2="346.5786">
	<stop  offset="0.1789" style="stop-color:#009245"/>
	<stop  offset="0.1835" style="stop-color:#029345"/>
	<stop  offset="0.3137" style="stop-color:#2CA243"/>
	<stop  offset="0.4466" style="stop-color:#4EAF42"/>
	<stop  offset="0.5806" style="stop-color:#69B940"/>
	<stop  offset="0.7163" style="stop-color:#7DC040"/>
	<stop  offset="0.8547" style="stop-color:#88C53F"/>
	<stop  offset="1" style="stop-color:#8CC63F"/>
</linearGradient>
<path fill="url(#SVGID_3_)" d="M39.67,335.23c0,6.271,13.553,11.348,30.272,11.348s30.272-5.076,30.272-11.348l-30.272-71.9
	L39.67,335.23z"/>
<linearGradient id="SVGID_4_" gradientUnits="userSpaceOnUse" x1="69.9424" y1="286.0249" x2="69.9424" y2="240.6416">
	<stop  offset="0" style="stop-color:#006837"/>
	<stop  offset="1" style="stop-color:#8CC63F"/>
</linearGradient>
<path fill="url(#SVGID_4_)" d="M92.631,263.33c0,12.531-10.158,22.695-22.689,22.695s-22.689-10.164-22.689-22.695
	c0-12.53,10.158-22.688,22.689-22.688S92.631,250.8,92.631,263.33z"/>
</svg>
